<?xml version="1.0" encoding="UTF-8"?>
<svg id="Layer_1" xmlns="http://www.w3.org/2000/svg" version="1.1" viewBox="0 0 126 52.6">
  <!-- Generator: Adobe Illustrator 30.5.1, SVG Export Plug-In . SVG Version: 2.1.4 Build 3)  -->
  <defs>
    <style>
      .st0 {
        isolation: isolate;
      }

      .st1 {
        fill: #fff;
      }
    </style>
  </defs>
  <g class="st0">
    <g class="st0">
      <path class="st1" d="M1.4,39.9c.8,7,3.2,11.2,16.4,11.2s15.1-2.7,15.1-9.1-3-7.3-10.7-8.3l-11.2-1.4c-6-.8-9.9-3.3-9.9-9.1s4.3-9.9,16.1-9.9,15.1,2.7,15.5,12h-1.4c-.4-8.4-5-10.5-14.5-10.5s-14.2,3.5-14.2,8.4,2.7,6.9,8.7,7.7l11.2,1.4c8.9,1.2,11.8,3.7,11.8,9.8s-2.3,10.4-16.6,10.4S.8,46.6,0,39.9h1.4Z"/>
      <path class="st1" d="M39.2,0h1.4v7.8h-1.4V0ZM39.2,14.5h1.4v36.9h-1.4V14.5Z"/>
      <path class="st1" d="M48.5,14.5h1.4v8.3h.1c2.9-6.6,8.5-9.4,16.6-9.4,14.1,0,16.6,7.8,16.6,14.8v23.2h-1.4v-23.2c0-6.1-1.9-13.4-15.1-13.4s-16.8,11.2-16.8,15.9v20.7h-1.4V14.5Z"/>
      <path class="st1" d="M91.2,0h1.4v36l29.4-21.5h2.5l-19.3,14.1,20.7,22.8h-1.9l-20-22-11.4,8.4v13.5h-1.4V0Z"/>
    </g>
  </g>
</svg>